<svg xmlns="http://www.w3.org/2000/svg" width="256" height="256" viewBox="0 0 100 100"><rect width="100" height="100" rx="20" fill="#3820e2"></rect><path d="M15.86 68.44Q9.58 68.44 5.55 65.45Q1.52 62.47 1.22 56.91L1.22 56.91L11.88 56.91Q12.03 58.80 13.00 59.66Q13.97 60.53 15.50 60.53L15.50 60.53Q16.88 60.53 17.77 59.84Q18.66 59.15 18.66 57.93L18.66 57.93Q18.66 56.35 17.18 55.48Q15.70 54.62 12.39 53.54L12.39 53.54Q8.87 52.37 6.70 51.27Q4.53 50.18 2.93 48.06Q1.32 45.95 1.32 42.53L1.32 42.53Q1.32 39.06 3.05 36.59Q4.79 34.11 7.85 32.84Q10.91 31.56 14.78 31.56L14.78 31.56Q21.06 31.56 24.81 34.50Q28.55 37.43 28.81 42.73L28.81 42.73L17.95 42.73Q17.90 41.10 16.95 40.28Q16.01 39.47 14.53 39.47L14.53 39.47Q13.41 39.47 12.69 40.13Q11.98 40.79 11.98 42.02L11.98 42.02Q11.98 43.04 12.77 43.78Q13.56 44.52 14.73 45.05Q15.91 45.59 18.20 46.40L18.20 46.40Q21.62 47.58 23.84 48.72Q26.06 49.87 27.66 51.94Q29.27 54.00 29.27 57.17L29.27 57.17Q29.27 60.38 27.66 62.93Q26.06 65.48 23.02 66.96Q19.99 68.44 15.86 68.44L15.86 68.44ZM56.09 32.12L66.09 32.12L66.09 68.08L56.09 68.08L56.09 53.65L43.91 53.65L43.91 68.08L33.91 68.08L33.91 32.12L43.91 32.12L43.91 45.64L56.09 45.64L56.09 32.12ZM85.37 68.44Q79.10 68.44 75.07 65.45Q71.04 62.47 70.73 56.91L70.73 56.91L81.39 56.91Q81.54 58.80 82.51 59.66Q83.48 60.53 85.01 60.53L85.01 60.53Q86.39 60.53 87.28 59.84Q88.17 59.15 88.17 57.93L88.17 57.93Q88.17 56.35 86.69 55.48Q85.22 54.62 81.90 53.54L81.90 53.54Q78.38 52.37 76.21 51.27Q74.05 50.18 72.44 48.06Q70.83 45.95 70.83 42.53L70.83 42.53Q70.83 39.06 72.57 36.59Q74.30 34.11 77.36 32.84Q80.42 31.56 84.30 31.56L84.30 31.56Q90.57 31.56 94.32 34.50Q98.07 37.43 98.32 42.73L98.32 42.73L87.46 42.73Q87.41 41.10 86.46 40.28Q85.52 39.47 84.04 39.47L84.04 39.47Q82.92 39.47 82.21 40.13Q81.49 40.79 81.49 42.02L81.49 42.02Q81.49 43.04 82.28 43.78Q83.07 44.52 84.25 45.05Q85.42 45.59 87.71 46.40L87.71 46.40Q91.13 47.58 93.35 48.72Q95.57 49.87 97.17 51.94Q98.78 54.00 98.78 57.17L98.78 57.17Q98.78 60.38 97.17 62.93Q95.57 65.48 92.53 66.96Q89.50 68.44 85.37 68.44L85.37 68.44Z" fill="#fff"></path></svg>